<svg width="37" height="30" viewBox="0 0 37 30" fill="none" xmlns="http://www.w3.org/2000/svg">
<g clip-path="url(#clip0_345_3213)">
<path d="M0 14.956C0 15.5898 0.28369 16.2212 0.767086 16.6845L13.29 29.1831C13.7954 29.6684 14.376 29.9077 14.9634 29.9077C16.2793 29.9077 17.2368 28.9526 17.2368 27.6694C17.2368 27.0205 16.9912 26.4419 16.5547 26.0298L13.001 22.3892L5.3774 15.5034L4.63914 16.8432L11.5683 17.2983H33.833C35.2353 17.2983 36.1992 16.332 36.1992 14.956C36.1992 13.5801 35.2353 12.6138 33.833 12.6138H11.5683L4.63914 13.0689L5.3774 14.4287L13.001 7.52292L16.5547 3.87791C16.9912 3.4658 17.2368 2.88719 17.2368 2.23827C17.2368 0.955072 16.2793 0 14.9634 0C14.376 0 13.7954 0.239256 13.29 0.724605L0.767086 13.2275C0.28369 13.6909 0 14.3223 0 14.956Z" fill="white" fill-opacity="0.85"/>
</g>
<defs>
<clipPath id="clip0_345_3213">
<rect width="36.541" height="29.9804" fill="white"/>
</clipPath>
</defs>
</svg>
