<svg width="37" height="37" viewBox="0 0 37 37" fill="none" xmlns="http://www.w3.org/2000/svg">
<g clip-path="url(#clip0_381_3672)">
<path d="M6.47606 36.0771H29.5566C33.8413 36.0771 36.0327 33.8857 36.0327 29.6611V6.44042C36.0327 2.21581 33.8413 0.0244141 29.5566 0.0244141H6.47606C2.21142 0.0244141 0 2.21581 0 6.44042V29.6611C0 33.8857 2.21142 36.0771 6.47606 36.0771ZM6.71824 31.8999C5.07468 31.8999 4.1572 31.0601 4.1572 29.3188V6.7827C4.1572 5.0615 5.07468 4.20163 6.71824 4.20163H29.3145C30.958 4.20163 31.8755 5.0615 31.8755 6.7827V29.3188C31.8755 31.0601 30.958 31.8999 29.3145 31.8999H6.71824Z" fill="white" fill-opacity="0.85"/>
<path d="M26.4996 17.9702C27.3936 17.9702 28.1124 17.2515 28.1124 16.3774C28.1124 15.479 27.3936 14.7646 26.4996 14.7646H25.8307L23.2598 15.0308L27.8092 10.7231C28.5011 10.0688 28.5123 8.93556 27.8292 8.24806C27.1417 7.56496 26.004 7.56056 25.3341 8.26808L21.0221 12.8374L21.2682 10.2153V9.51759C21.2682 8.61916 20.5494 7.9048 19.6754 7.9048C18.7813 7.9048 18.0626 8.61916 18.0626 9.51759V15.9922C18.0626 17.3852 18.7745 17.9702 20.045 17.9702H26.4996ZM16.3575 28.1479C17.2516 28.1479 17.9703 27.4336 17.9703 26.5352V20.0605C17.9703 18.6675 17.2584 18.0825 15.9879 18.0825H9.53327C8.63923 18.0825 7.92048 18.8013 7.92048 19.6753C7.92048 20.5737 8.63923 21.2881 9.53327 21.2881H10.1822L12.753 21.022L8.2237 25.3296C7.5318 25.9795 7.52057 27.1172 8.20368 27.8047C8.89118 28.4878 10.0289 28.4966 10.6988 27.7847L15.0108 23.2153L14.7647 25.8374V26.5352C14.7647 27.4336 15.4635 28.1479 16.3575 28.1479Z" fill="white" fill-opacity="0.85"/>
</g>
<defs>
<clipPath id="clip0_381_3672">
<rect width="36.3745" height="36.0771" fill="white"/>
</clipPath>
</defs>
</svg>
