<svg width="35" height="35" viewBox="0 0 35 35" fill="none" xmlns="http://www.w3.org/2000/svg">
<g clip-path="url(#clip0_613_265)">
<path d="M13.3525 34.5957C14.4673 34.5957 15.3471 34.1367 15.9633 33.1968L33.7129 5.45602C34.1762 4.75534 34.3491 4.14597 34.3491 3.55857C34.3491 2.10301 33.3305 1.08203 31.8374 1.08203C30.7871 1.08203 30.1714 1.44091 29.5288 2.45799L13.2593 28.44L4.7861 17.2905C4.15427 16.4765 3.51169 16.124 2.57859 16.124C1.08544 16.124 0 17.185 0 18.665C0 19.3051 0.237304 19.937 0.766596 20.5883L10.7212 33.2182C11.4751 34.1587 12.2729 34.5957 13.3525 34.5957Z" fill="white"/>
</g>
<defs>
<clipPath id="clip0_613_265">
<rect width="34.6909" height="34.5967" fill="white"/>
</clipPath>
</defs>
</svg>
