<svg width="37" height="37" viewBox="0 0 37 37" fill="none" xmlns="http://www.w3.org/2000/svg">
<g clip-path="url(#clip0_613_285)">
<path d="M36.0327 6.43944V29.6601C36.0327 33.8847 33.8413 36.0761 29.5566 36.0761H6.47606C2.21142 36.0761 0 33.8847 0 29.6601V6.43944C0 2.21483 2.21142 0.0234375 6.47606 0.0234375H29.5566C33.8413 0.0234375 36.0327 2.21483 36.0327 6.43944ZM19.457 8.56249L11.7329 15.7695C10.4375 16.9873 10.4375 19.1367 11.7329 20.3344L19.457 27.5659C20.1089 28.1845 21.3838 28.2246 22.0224 27.6103C22.7607 26.8676 22.7431 25.708 22.0381 25.0317L14.5322 18.0498L22.0381 11.0922C22.7676 10.3916 22.7475 9.19432 21.9892 8.49364C21.313 7.85497 20.1865 7.88183 19.457 8.56249Z" fill="white"/>
</g>
<defs>
<clipPath id="clip0_613_285">
<rect width="36.3745" height="36.0771" fill="white"/>
</clipPath>
</defs>
</svg>
