<svg width="34" height="42" viewBox="0 0 34 42" fill="none" xmlns="http://www.w3.org/2000/svg">
<g clip-path="url(#clip0_613_295)">
<path d="M6.39599 41.5576H26.7187C30.9433 41.5576 33.1347 39.3462 33.1347 35.0815V18.0078C33.1347 15.1597 32.7803 13.8472 30.9814 12.0083L21.3066 2.15331C19.5879 0.394529 18.1552 0 15.5874 0H6.39599C2.17138 0 0 2.21142 0 6.47606V35.0815C0 39.3662 2.17138 41.5576 6.39599 41.5576ZM6.73826 37.4004C5.01707 37.4004 4.1572 36.4829 4.1572 34.8394V6.71824C4.1572 5.07468 5.01707 4.1572 6.75828 4.1572H14.6519V14.3887C14.6519 17.2617 16.0732 18.6831 18.9463 18.6831H28.9575V34.8394C28.9575 36.4829 28.0977 37.4004 26.3765 37.4004H6.73826ZM19.3569 15.0137C18.6294 15.0137 18.3013 14.6855 18.3013 13.958V4.7241L28.3906 15.0137H19.3569Z" fill="white"/>
<path d="M23.1899 23.3047H9.48878C8.70313 23.3047 8.11719 23.8706 8.11719 24.6074C8.11719 25.3687 8.70313 25.959 9.48878 25.959H23.1899C23.9512 25.959 24.5171 25.3687 24.5171 24.6074C24.5171 23.8706 23.9512 23.3047 23.1899 23.3047ZM23.1899 29.6729H9.48878C8.70313 29.6729 8.11719 30.2632 8.11719 31.0244C8.11719 31.7613 8.70313 32.3272 9.48878 32.3272H23.1899C23.9512 32.3272 24.5171 31.7613 24.5171 31.0244C24.5171 30.2632 23.9512 29.6729 23.1899 29.6729Z" fill="white"/>
</g>
<defs>
<clipPath id="clip0_613_295">
<rect width="33.4765" height="41.5732" fill="white"/>
</clipPath>
</defs>
</svg>
