<svg width="54" height="42" viewBox="0 0 54 42" fill="none" xmlns="http://www.w3.org/2000/svg">
<g clip-path="url(#clip0_613_306)">
<path d="M36.6152 6.47606V14.9902H32.438V6.71824C32.438 5.07468 31.5781 4.1572 29.8569 4.1572H10.2388C8.49754 4.1572 7.63767 5.07468 7.63767 6.71824V34.8394C7.63767 36.4829 8.49754 37.4004 10.2388 37.4004H29.8569C31.5781 37.4004 32.438 36.4829 32.438 34.8394V26.5586H36.6152V35.0815C36.6152 39.3662 34.4238 41.5576 30.1992 41.5576H9.87646C5.65185 41.5576 3.48047 39.3662 3.48047 35.0815V6.47606C3.48047 2.21142 5.65185 0 9.87646 0H30.1992C34.4238 0 36.6152 2.21142 36.6152 6.47606Z" fill="white"/>
<path d="M22.5415 22.7348H41.3232L44.1977 22.5664L42.998 23.5502L40.3037 26.0468C39.9111 26.375 39.7339 26.854 39.7339 27.3505C39.7339 28.3154 40.4301 29.1044 41.4101 29.1044C41.9223 29.1044 42.3149 28.8959 42.663 28.5478L48.6801 22.2622C49.1811 21.7568 49.354 21.2827 49.354 20.7729C49.354 20.2631 49.1811 19.789 48.6801 19.2837L42.663 12.998C42.3149 12.6298 41.9223 12.4414 41.4101 12.4414C40.4301 12.4414 39.7339 13.2104 39.7339 14.1753C39.7339 14.6718 39.9111 15.1709 40.3037 15.499L42.998 17.9956L44.2177 18.9795L41.3232 18.811H22.5415C21.5151 18.811 20.624 19.7046 20.624 20.7729C20.624 21.8413 21.5151 22.7348 22.5415 22.7348Z" fill="white"/>
</g>
<defs>
<clipPath id="clip0_613_306">
<rect width="53.1767" height="41.5732" fill="white"/>
</clipPath>
</defs>
</svg>
