<svg width="37" height="37" viewBox="0 0 37 37" fill="none" xmlns="http://www.w3.org/2000/svg">
<g clip-path="url(#clip0_613_319)">
<path d="M23.831 36.0756H31.6782C34.6113 36.0756 36.0327 34.6342 36.0327 31.6411V23.934C36.0327 20.9409 34.6113 19.5195 31.6782 19.5195H23.831C20.8979 19.5195 19.4766 20.9409 19.4766 23.934V31.6411C19.4766 34.6342 20.8979 36.0756 23.831 36.0756ZM23.8623 32.5864C23.2588 32.5864 22.9458 32.2734 22.9458 31.6699V23.9252C22.9458 23.3017 23.2588 22.9887 23.8623 22.9887H31.667C32.2705 22.9887 32.5635 23.3017 32.5635 23.9252V31.6699C32.5635 32.2734 32.2705 32.5864 31.667 32.5864H23.8623Z" fill="white"/>
<path d="M4.35447 36.0756H12.2017C15.1348 36.0756 16.5561 34.6342 16.5561 31.6411V23.934C16.5561 20.9409 15.1348 19.5195 12.2017 19.5195H4.35447C1.42138 19.5195 0 20.9409 0 23.934V31.6411C0 34.6342 1.42138 36.0756 4.35447 36.0756ZM4.3657 32.5864C3.78221 32.5864 3.46922 32.2734 3.46922 31.6699V23.9252C3.46922 23.3017 3.78221 22.9887 4.3657 22.9887H12.1704C12.7739 22.9887 13.0869 23.3017 13.0869 23.9252V31.6699C13.0869 32.2734 12.7739 32.5864 12.1704 32.5864H4.3657Z" fill="white"/>
<path d="M23.831 16.5996H31.6782C34.6113 16.5996 36.0327 15.1582 36.0327 12.165V4.45799C36.0327 1.46484 34.6113 0.0234375 31.6782 0.0234375H23.831C20.8979 0.0234375 19.4766 1.46484 19.4766 4.45799V12.165C19.4766 15.1582 20.8979 16.5996 23.831 16.5996ZM23.8623 13.1103C23.2588 13.1103 22.9458 12.7973 22.9458 12.1738V4.42918C22.9458 3.82566 23.2588 3.51268 23.8623 3.51268H31.667C32.2705 3.51268 32.5635 3.82566 32.5635 4.42918V12.1738C32.5635 12.7973 32.2705 13.1103 31.667 13.1103H23.8623Z" fill="white"/>
<path d="M4.35447 16.5996H12.2017C15.1348 16.5996 16.5561 15.1582 16.5561 12.165V4.45799C16.5561 1.46484 15.1348 0.0234375 12.2017 0.0234375H4.35447C1.42138 0.0234375 0 1.46484 0 4.45799V12.165C0 15.1582 1.42138 16.5996 4.35447 16.5996ZM4.3657 13.1103C3.78221 13.1103 3.46922 12.7973 3.46922 12.1738V4.42918C3.46922 3.82566 3.78221 3.51268 4.3657 3.51268H12.1704C12.7739 3.51268 13.0869 3.82566 13.0869 4.42918V12.1738C13.0869 12.7973 12.7739 13.1103 12.1704 13.1103H4.3657Z" fill="white"/>
</g>
<defs>
<clipPath id="clip0_613_319">
<rect width="36.3745" height="36.0771" fill="white"/>
</clipPath>
</defs>
</svg>
