<svg width="48" height="45" viewBox="0 0 48 45" fill="none" xmlns="http://www.w3.org/2000/svg">
<g clip-path="url(#clip0_613_331)">
<path d="M18.2168 38.5281H29.3169V24.8464C29.3169 23.9143 28.7065 23.3039 27.7744 23.3039H19.7637C18.8315 23.3039 18.2168 23.9143 18.2168 24.8464V38.5281ZM10.7373 41.3039H36.6763C39.6797 41.3039 41.4697 39.5539 41.4697 36.6389V15.3948L37.3125 12.594V35.3665C37.3125 36.4963 36.6621 37.1467 35.5723 37.1467H11.8213C10.7314 37.1467 10.101 36.4963 10.101 35.3665V12.594L5.92382 15.3948V36.6389C5.92382 39.5539 7.71385 41.3039 10.7373 41.3039ZM0 19.6609C0 20.7619 0.83105 21.6999 2.18993 21.6999C2.84862 21.6999 3.44481 21.3493 3.95018 20.926L22.9883 4.94211C23.5044 4.51243 24.0937 4.53245 24.5742 4.94211L43.6035 20.926C44.1289 21.3493 44.7251 21.6999 45.3838 21.6999C46.6025 21.6999 47.5337 20.9421 47.5337 19.7209C47.5337 19.0002 47.2768 18.4421 46.7339 17.9856L26.625 1.09057C24.8916 -0.363523 22.6909 -0.363523 20.9575 1.09057L0.819819 17.99C0.276853 18.4465 0 19.0803 0 19.6609ZM35.6538 9.84107L41.4697 14.7414V5.43287C41.4697 4.50074 40.8593 3.91041 39.9472 3.91041H37.2007C36.2685 3.91041 35.6538 4.50074 35.6538 5.43287V9.84107Z" fill="white"/>
</g>
<defs>
<clipPath id="clip0_613_331">
<rect width="47.8755" height="44.7583" fill="white"/>
</clipPath>
</defs>
</svg>
