<svg width="41" height="45" viewBox="0 0 41 45" fill="none" xmlns="http://www.w3.org/2000/svg">
<g clip-path="url(#clip0_613_342)">
<path d="M37.5928 28.706C39.3701 29.7534 40.1103 30.6069 40.1103 31.9126C40.1103 33.2182 39.3701 34.0717 37.5928 35.0991L22.8882 43.6601C21.7969 44.2856 20.9404 44.5893 20.0552 44.5893C19.1699 44.5893 18.3135 44.2856 17.2222 43.6601L2.51757 35.0991C0.74023 34.0717 0 33.2182 0 31.9126C0 30.6069 0.74023 29.7534 2.51757 28.706L4.60743 27.4922L8.75253 29.8998L5.43893 31.7817C5.36569 31.8105 5.34128 31.8393 5.34128 31.9126C5.34128 31.9658 5.36569 32.0146 5.43893 32.0434L19.2353 39.8789C19.5508 40.0566 19.7886 40.1455 20.0552 40.1455C20.3218 40.1455 20.5596 40.0566 20.875 39.8789L34.6714 32.0434C34.7446 32.0146 34.7691 31.9658 34.7691 31.9126C34.7691 31.8393 34.7446 31.8105 34.6714 31.7817L31.3578 29.8998L35.5029 27.4922L37.5928 28.706Z" fill="white"/>
<path d="M37.5928 19.8852C39.3701 20.9126 40.1103 21.7661 40.1103 23.0718C40.1103 24.3774 39.3701 25.2309 37.5928 26.2783L22.8882 34.8193C21.7969 35.4448 20.9404 35.7485 20.0552 35.7485C19.1699 35.7485 18.3135 35.4448 17.2222 34.8193L2.51757 26.2783C0.74023 25.2309 0 24.3774 0 23.0718C0 21.7661 0.74023 20.9126 2.51757 19.8852L5.1278 18.3691L9.26131 20.77L5.43893 22.9409C5.36569 22.9897 5.34128 23.0185 5.34128 23.0718C5.34128 23.145 5.36569 23.1738 5.43893 23.2026L19.2353 31.0581C19.5508 31.2158 19.7886 31.3047 20.0552 31.3047C20.3218 31.3047 20.5596 31.2158 20.875 31.0581L34.6714 23.2026C34.7446 23.1738 34.7691 23.145 34.7691 23.0718C34.7691 23.0185 34.7446 22.9897 34.6714 22.9409L30.849 20.77L34.9825 18.3691L37.5928 19.8852Z" fill="white"/>
<path d="M20.0552 26.3256C20.9404 26.3256 21.7969 26.0219 22.8882 25.3964L37.5928 16.8554C39.3701 15.808 40.1103 14.9545 40.1103 13.6489C40.1103 12.3632 39.3701 11.4897 37.5928 10.4624L22.8882 1.92138C21.7969 1.27587 20.9404 0.992188 20.0552 0.992188C19.1699 0.992188 18.3135 1.27587 17.2222 1.92138L2.51757 10.4624C0.74023 11.4897 0 12.3632 0 13.6489C0 14.9545 0.74023 15.808 2.51757 16.8554L17.2222 25.3964C18.3135 26.0219 19.1699 26.3256 20.0552 26.3256ZM20.0552 21.8818C19.7886 21.8818 19.5508 21.7929 19.2353 21.6352L5.43893 13.7797C5.36569 13.7509 5.34128 13.7221 5.34128 13.6489C5.34128 13.5956 5.36569 13.5668 5.43893 13.518L19.2353 5.68259C19.5508 5.50486 19.7886 5.41599 20.0552 5.41599C20.3218 5.41599 20.5596 5.50486 20.875 5.68259L34.6714 13.518C34.7446 13.5668 34.7691 13.5956 34.7691 13.6489C34.7691 13.7221 34.7446 13.7509 34.6714 13.7797L20.875 21.6352C20.5596 21.7929 20.3218 21.8818 20.0552 21.8818Z" fill="white"/>
</g>
<defs>
<clipPath id="clip0_613_342">
<rect width="40.4521" height="44.5898" fill="white"/>
</clipPath>
</defs>
</svg>
