<svg width="39" height="46" viewBox="0 0 39 46" fill="none" xmlns="http://www.w3.org/2000/svg">
<g clip-path="url(#clip0_613_354)">
<path d="M21.9299 3.3692C21.0753 4.3428 20.4187 5.49103 20.0175 6.74847C19.7876 6.68208 19.5397 6.64938 19.2778 6.64938C17.6323 6.64938 16.5664 7.90866 16.5024 9.87351C16.4805 10.3613 16.2519 10.5922 15.8169 10.6899C12.772 11.5317 10.2558 14.0537 10.1391 22.3847C10.0332 25.8745 9.25338 28.185 8.1235 29.521C7.22408 30.5644 6.19186 31.4619 5.6318 31.9101V32.1455H32.8799V31.9101C32.3198 31.4619 31.3272 30.5644 30.4321 29.521C29.311 28.185 28.5225 25.8745 28.4165 22.3847C28.4005 21.2435 28.3395 20.2113 28.2344 19.2869C28.5644 19.3225 28.8994 19.3403 29.2383 19.3403C30.3275 19.3403 31.3775 19.1554 32.3542 18.8067C32.4636 19.7806 32.5267 20.8152 32.5513 21.9033C32.7231 24.1836 33.123 26.4585 34.3491 27.5966C36.104 29.2504 38.0136 31.0258 38.0136 33.062C38.0136 34.8354 36.6743 36.0258 34.4629 36.0258H27.0889C26.9023 39.7548 23.7915 43.2118 19.2778 43.2118C14.7442 43.2118 11.6333 39.7348 11.4668 36.0258H4.09276C1.88134 36.0258 0.541992 34.8354 0.541992 33.062C0.541992 31.0258 2.43164 29.2504 4.20654 27.5966C5.41259 26.4585 5.83252 24.1836 5.98437 21.9033C6.17821 14.1884 8.29392 9.16065 13.3955 7.229C14.1782 4.72607 16.3394 2.76562 19.2778 2.76562C20.2563 2.76562 21.1486 2.983 21.9299 3.3692ZM15.458 36.0258C15.6001 38.3315 17.1279 39.8261 19.2778 39.8261C21.4077 39.8261 22.9556 38.3315 23.0977 36.0258H15.458Z" fill="white"/>
<path d="M29.2384 16.4253C32.9142 16.4253 35.984 13.3755 35.984 9.65967C35.984 5.96387 32.9142 2.91406 29.2384 2.91406C25.5226 2.91406 22.4727 5.96387 22.4727 9.65967C22.4727 13.3755 25.5226 16.4253 29.2384 16.4253Z" fill="white"/>
</g>
<defs>
<clipPath id="clip0_613_354">
<rect width="38.8975" height="45.998" fill="white"/>
</clipPath>
</defs>
</svg>
