<svg width="37" height="37" viewBox="0 0 37 37" fill="none" xmlns="http://www.w3.org/2000/svg">
<g clip-path="url(#clip0_613_364)">
<path d="M36.0327 6.43944V29.6601C36.0327 33.8847 33.8413 36.0761 29.5566 36.0761H6.47606C2.21142 36.0761 0 33.8847 0 29.6601V6.43944C0 2.21483 2.21142 0.0234375 6.47606 0.0234375H29.5566C33.8413 0.0234375 36.0327 2.21483 36.0327 6.43944ZM13.5088 8.19335C12.7305 8.93407 12.7305 10.1513 13.4599 10.852L21.2061 18.0498L13.4599 25.2719C12.7349 25.9682 12.7173 27.1479 13.4756 27.9306C14.1142 28.5249 15.4292 28.4848 16.1211 27.8462L24.0854 20.4145C25.4209 19.1767 25.4209 16.9472 24.0854 15.7094L16.1211 8.28221C15.3716 7.58153 14.2051 7.53466 13.5088 8.19335Z" fill="white"/>
</g>
<defs>
<clipPath id="clip0_613_364">
<rect width="36.3745" height="36.0771" fill="white"/>
</clipPath>
</defs>
</svg>
