<svg width="41" height="40" viewBox="0 0 41 40" fill="none" xmlns="http://www.w3.org/2000/svg">
<g clip-path="url(#clip0_613_373)">
<path d="M19.935 39.8701C30.8467 39.8701 39.8901 30.8467 39.8901 19.935C39.8901 9.02343 30.8266 0 19.915 0C9.02343 0 0 9.02343 0 19.935C0 30.8467 9.04345 39.8701 19.935 39.8701ZM19.935 35.5527C11.2837 35.5527 4.3574 28.6064 4.3574 19.935C4.3574 11.2637 11.2637 4.31736 19.915 4.31736C28.5864 4.31736 35.5527 11.2637 35.5527 19.935C35.5527 28.6064 28.6064 35.5527 19.935 35.5527ZM32.7163 32.626L32.6343 32.272C31.4566 29.4287 26.6309 26.5859 19.935 26.5859C13.2392 26.5859 8.43356 29.4287 7.25583 32.272L7.1738 32.626C10.8232 35.9228 16.519 37.6802 19.935 37.6802C23.3711 37.6802 29.0669 35.9228 32.7163 32.626ZM19.935 23.4687C23.6435 23.5088 26.5488 20.3374 26.5488 16.2246C26.5488 12.3515 23.6348 9.12694 19.935 9.12694C16.2554 9.12694 13.3169 12.3515 13.3413 16.2246C13.3613 20.3374 16.2266 23.4287 19.935 23.4687Z" fill="white"/>
</g>
<defs>
<clipPath id="clip0_613_373">
<rect width="40.2319" height="39.8857" fill="white"/>
</clipPath>
</defs>
</svg>
