<svg width="39" height="39" viewBox="0 0 39 39" fill="none" xmlns="http://www.w3.org/2000/svg">
<g clip-path="url(#clip0_613_382)">
<path d="M0 15.8086C0 24.5361 7.08105 31.5971 15.8086 31.5971C18.9639 31.5971 21.8726 30.6596 24.3213 29.0468L32.7881 37.5337C33.4063 38.1318 34.1992 38.4087 35.0166 38.4087C36.7666 38.4087 38.0556 37.0752 38.0556 35.3296C38.0556 34.501 37.7432 33.7368 37.1963 33.1499L28.7871 24.7207C30.5664 22.1943 31.5971 19.1348 31.5971 15.8086C31.5971 7.08105 24.5361 0 15.8086 0C7.08105 0 0 7.08105 0 15.8086ZM4.51999 15.8086C4.51999 9.55808 9.55808 4.51999 15.8086 4.51999C22.0391 4.51999 27.0972 9.55808 27.0972 15.8086C27.0972 22.0391 22.0391 27.0972 15.8086 27.0972C9.55808 27.0972 4.51999 22.0391 4.51999 15.8086Z" fill="white"/>
</g>
<defs>
<clipPath id="clip0_613_382">
<rect width="38.3974" height="38.4131" fill="white"/>
</clipPath>
</defs>
</svg>
