<svg width="38" height="38" viewBox="0 0 38 38" fill="none" xmlns="http://www.w3.org/2000/svg">
<g clip-path="url(#clip0_417_822)">
<path d="M37.6772 18.8291C37.6772 29.1355 29.1355 37.6583 18.8291 37.6583C8.54176 37.6583 0 29.1355 0 18.8291C0 8.52285 8.52285 0 18.8102 0C29.1165 0 37.6772 8.52285 37.6772 18.8291ZM17.3893 9.79434L11.2365 15.9942C10.9017 16.3415 10.7509 16.7543 10.7509 17.2546C10.7509 18.2222 11.4778 18.9407 12.4619 18.9407C12.9688 18.9407 13.423 18.7502 13.7394 18.409L15.5952 16.4364L17.2006 14.3639L16.9955 18.4994V26.5966C16.9955 27.6624 17.7845 28.4183 18.8481 28.4183C19.9305 28.4183 20.7196 27.6624 20.7196 26.5966V18.4994L20.5143 14.345L22.1239 16.4572L23.9756 18.409C24.2961 18.7692 24.7504 18.9407 25.2342 18.9407C26.2373 18.9407 26.983 18.2222 26.983 17.2546C26.983 16.7543 26.8133 16.3415 26.4596 15.9942L20.3446 9.79434C19.888 9.30227 19.4319 9.08458 18.8481 9.08458C18.2831 9.08458 17.8648 9.30227 17.3893 9.79434Z" fill="black"/>
</g>
<defs>
<clipPath id="clip0_417_822">
<rect width="38" height="37.673" fill="white"/>
</clipPath>
</defs>
</svg>
