<svg width="20" height="16" viewBox="0 0 20 16" fill="none" xmlns="http://www.w3.org/2000/svg">
<g clip-path="url(#clip0_417_831)">
<path d="M2.82735 15.9999H17.0234C18.894 15.9999 19.8508 15.028 19.8508 13.1545V2.85621C19.8508 0.982615 18.894 0.0107422 17.0234 0.0107422H2.82735C0.965473 0.0107422 0 0.982615 0 2.85621V13.1545C0 15.028 0.965473 15.9999 2.82735 15.9999ZM2.93308 14.1474C2.21553 14.1474 1.81497 13.7749 1.81497 13.0026V3.00801C1.81497 2.24466 2.21553 1.86332 2.93308 1.86332H16.9177C17.6352 1.86332 18.0358 2.24466 18.0358 3.00801V13.0026C18.0358 13.7749 17.6352 14.1474 16.9177 14.1474H2.93308ZM6.73061 14.4486H8.4618V1.56534H6.73061V14.4486ZM5.08853 4.9604C5.41658 4.9604 5.68861 4.67719 5.68861 4.36253C5.68861 4.04788 5.41658 3.78044 5.08853 3.78044H3.47455C3.15521 3.78044 2.8832 4.04788 2.8832 4.36253C2.8832 4.67719 3.15521 4.9604 3.47455 4.9604H5.08853ZM5.08853 7.21362C5.41658 7.21362 5.68861 6.93923 5.68861 6.61575C5.68861 6.30109 5.41658 6.03561 5.08853 6.03561H3.47455C3.15521 6.03561 2.8832 6.30109 2.8832 6.61575C2.8832 6.93923 3.15521 7.21362 3.47455 7.21362H5.08853ZM5.08853 9.46875C5.41658 9.46875 5.68861 9.19245 5.68861 8.87779C5.68861 8.56318 5.41658 8.29766 5.08853 8.29766H3.47455C3.15521 8.29766 2.8832 8.56318 2.8832 8.87779C2.8832 9.19245 3.15521 9.46875 3.47455 9.46875H5.08853Z" fill="white" fill-opacity="0.6"/>
</g>
<defs>
<clipPath id="clip0_417_831">
<rect width="20" height="16" fill="white"/>
</clipPath>
</defs>
</svg>
