<svg width="55" height="39" viewBox="0 0 55 39" fill="none" xmlns="http://www.w3.org/2000/svg">
<g clip-path="url(#clip0_522_835)">
<path d="M46.1656 38.0113C47.0894 38.6387 48.3349 38.3707 48.9867 37.3556C52.4223 32.3307 54.353 25.922 54.353 19.1764C54.353 12.4308 52.3622 6.0421 48.9867 0.997191C48.3349 -0.0379597 47.0894 -0.286005 46.1656 0.341434C45.1841 0.982056 45.0313 2.20959 45.7383 3.30626C48.6573 7.67979 50.3843 13.275 50.3843 19.1764C50.3843 25.0577 48.6573 30.693 45.7383 35.0465C45.0313 36.1432 45.1841 37.3707 46.1656 38.0113Z" fill="white"/>
<path d="M38.2538 32.8389C39.2044 33.4376 40.3768 33.2271 41.033 32.2452C43.5228 28.6891 44.952 23.9869 44.952 19.1632C44.952 14.3395 43.5428 9.59729 41.033 6.08118C40.3768 5.09925 39.2044 4.88881 38.2538 5.48744C37.2547 6.11243 37.0995 7.35315 37.8353 8.45861C39.8221 11.379 40.9476 15.2213 40.9476 19.1632C40.9476 23.1051 39.7821 26.9273 37.8353 29.8678C37.1195 30.9732 37.2547 32.214 38.2538 32.8389Z" fill="white"/>
<path d="M30.3559 27.7425C31.2422 28.3142 32.4213 28.1238 33.0688 27.1902C34.6084 25.1097 35.5068 22.1585 35.5068 19.1634C35.5068 16.1683 34.6084 13.2371 33.0688 11.1322C32.4213 10.203 31.2422 10.0125 30.3559 10.6043C29.3364 11.2806 29.1372 12.5174 29.9526 13.7063C30.9385 15.098 31.498 17.1341 31.498 19.1634C31.498 21.1927 30.9184 23.2088 29.9526 24.6204C29.1572 25.8294 29.3364 27.0462 30.3559 27.7425Z" fill="white"/>
<path d="M21.0996 36.4927C22.605 36.4927 23.7578 35.3799 23.7578 33.8545V4.62059C23.7578 3.11523 22.605 1.88232 21.0596 1.88232C20.0171 1.88232 19.2744 2.31055 18.123 3.4043L10.227 10.7388C10.1294 10.832 9.99608 10.9009 9.85839 10.9009H4.54686C1.55908 10.9009 0 12.4819 0 15.6719V22.7231C0 25.8931 1.55908 27.4941 4.54686 27.4941H9.85399C9.99169 27.4941 10.125 27.5342 10.2226 27.6274L18.123 35.0908C19.1855 36.0757 20.0395 36.4927 21.0996 36.4927Z" fill="white"/>
</g>
<defs>
<clipPath id="clip0_522_835">
<rect width="54.6947" height="38.3508" fill="white"/>
</clipPath>
</defs>
</svg>
